<svg width="56" height="26" viewBox="0 0 56 26" fill="none" xmlns="http://www.w3.org/2000/svg">
<path d="M10.4347 26H0.640625V0.545454H10.3352C12.9536 0.545454 15.2157 1.05504 17.1214 2.07422C19.0355 3.08511 20.5104 4.54344 21.5462 6.44922C22.5902 8.34671 23.1122 10.6212 23.1122 13.2727C23.1122 15.9242 22.5943 18.2029 21.5586 20.1087C20.5228 22.0062 19.0562 23.4645 17.1587 24.4837C15.2612 25.4946 13.0199 26 10.4347 26ZM7.55114 20.1335H10.1861C11.4455 20.1335 12.5186 19.9305 13.4052 19.5245C14.3001 19.1185 14.9795 18.4183 15.4435 17.424C15.9158 16.4297 16.152 15.0459 16.152 13.2727C16.152 11.4995 15.9117 10.1158 15.4311 9.12145C14.9588 8.12713 14.2628 7.42696 13.343 7.02095C12.4316 6.61494 11.313 6.41193 9.98722 6.41193H7.55114V20.1335ZM26.3096 0.545454H34.9104L40.8266 14.9631H41.1249L47.0411 0.545454H55.642V26H48.8806V11.2841H48.6817L43.0141 25.8011H38.9374L33.2698 11.1847H33.0709V26H26.3096V0.545454Z" fill="white"/>
</svg>
